<?xml version="1.0" encoding="utf-8"?>
<!-- Generator: Adobe Illustrator 19.0.0, SVG Export Plug-In . SVG Version: 6.00 Build 0)  -->
<svg version="1.1" id="Layer_1" xmlns="http://www.w3.org/2000/svg" xmlns:xlink="http://www.w3.org/1999/xlink" x="0px" y="0px"
	 viewBox="0 0 595.3 285.2" style="enable-background:new 0 0 595.3 285.2;" xml:space="preserve">
<style type="text/css">
	.st0{fill:#2F2244;}
	.st1{enable-background:new    ;}
	.st2{fill:#968DB3;}
</style>
<g id="XMLID_45_">
	<path id="XMLID_101_" class="st0" d="M211.3,182.6c-4.7-2.5-8.4-6.1-11.1-10.8c-2.7-4.7-4-10.1-4-16.4c0-6.2,1.4-11.6,4.1-16.3
		c2.7-4.7,6.5-8.3,11.2-10.8s10.1-3.8,15.9-3.8c5.9,0,11.2,1.3,15.9,3.8c4.7,2.5,8.5,6.1,11.2,10.8c2.7,4.7,4.1,10.1,4.1,16.3
		c0,6.2-1.4,11.6-4.1,16.3c-2.8,4.7-6.5,8.3-11.3,10.8s-10.1,3.8-16,3.8S216,185.1,211.3,182.6z M236.2,166.5
		c2.5-2.6,3.7-6.3,3.7-11.1c0-4.8-1.2-8.5-3.6-11.1s-5.4-3.9-8.9-3.9c-3.6,0-6.6,1.3-8.9,3.8c-2.4,2.6-3.6,6.3-3.6,11.2
		c0,4.8,1.2,8.5,3.5,11.1s5.3,3.9,8.8,3.9S233.7,169.1,236.2,166.5z"/>
	<path id="XMLID_100_" class="st0" d="M268.3,139c2.3-4.7,5.5-8.3,9.5-10.8s8.5-3.8,13.5-3.8c3.9,0,7.6,0.8,10.8,2.5
		c3.3,1.7,5.8,3.9,7.7,6.7v-27.9h18.5v79.7h-18.4v-8.6c-1.7,2.9-4.2,5.2-7.4,6.9c-3.2,1.7-6.9,2.6-11.2,2.6c-5,0-9.4-1.3-13.5-3.8
		c-4-2.5-7.2-6.2-9.5-10.9c-2.3-4.7-3.5-10.1-3.5-16.3C264.8,149.1,266,143.7,268.3,139z M306,144.5c-2.6-2.7-5.7-4-9.3-4
		c-3.7,0-6.8,1.3-9.3,3.9c-2.6,2.6-3.8,6.2-3.8,10.8c0,4.6,1.3,8.2,3.8,10.9c2.5,2.7,5.7,4,9.3,4c3.7,0,6.8-1.3,9.3-4
		s3.8-6.3,3.8-10.9C309.8,150.8,308.6,147.2,306,144.5z"/>
	<path id="XMLID_99_" class="st0" d="M339.4,116.2c-2-1.9-3.1-4.3-3.1-7.1c0-2.9,1-5.3,3.1-7.2c2-1.9,4.7-2.9,7.9-2.9
		c3.2,0,5.8,1,7.8,2.9s3.1,4.3,3.1,7.2c0,2.8-1,5.2-3.1,7.1c-2,1.9-4.7,2.9-7.8,2.9C344.1,119.1,341.4,118.1,339.4,116.2z
		 M356.5,125.3v60.1h-18.4v-60.1H356.5z"/>
	<path id="XMLID_98_" class="st0" d="M384.7,105.7v79.7h-18.4v-79.7L384.7,105.7L384.7,105.7z"/>
	<path id="XMLID_97_" class="st0" d="M395.8,116.2c-2-1.9-3.1-4.3-3.1-7.1c0-2.9,1-5.3,3.1-7.2c2-1.9,4.7-2.9,7.9-2.9
		c3.2,0,5.8,1,7.8,2.9s3.1,4.3,3.1,7.2c0,2.8-1,5.2-3.1,7.1c-2,1.9-4.7,2.9-7.8,2.9C400.5,119.1,397.9,118.1,395.8,116.2z
		 M412.9,125.3v60.1h-18.4v-60.1H412.9z"/>
	<path id="XMLID_96_" class="st0" d="M431.4,183.6c-4.1-1.8-7.3-4.3-9.7-7.4c-2.4-3.1-3.7-6.6-4-10.5h18.2c0.2,2.1,1.2,3.8,2.9,5.1
		s3.8,1.9,6.4,1.9c2.3,0,4.1-0.4,5.3-1.3c1.3-0.9,1.9-2.1,1.9-3.5c0-1.7-0.9-3-2.7-3.8c-1.8-0.8-4.7-1.7-8.7-2.7
		c-4.3-1-7.9-2.1-10.8-3.2s-5.4-2.9-7.4-5.3c-2.1-2.4-3.1-5.7-3.1-9.8c0-3.4,1-6.6,2.9-9.4s4.7-5.1,8.4-6.7s8.1-2.5,13.2-2.5
		c7.5,0,13.5,1.9,17.8,5.6s6.8,8.7,7.5,14.9h-17c-0.3-2.1-1.2-3.7-2.7-5c-1.5-1.2-3.6-1.8-6.1-1.8c-2.2,0-3.8,0.4-5,1.2
		c-1.1,0.8-1.7,2-1.7,3.4c0,1.7,0.9,3,2.7,3.9c1.8,0.9,4.7,1.7,8.6,2.6c4.5,1.2,8.1,2.3,10.9,3.4s5.3,2.9,7.4,5.4
		c2.1,2.5,3.2,5.8,3.3,10c0,3.5-1,6.7-3,9.4c-2,2.8-4.8,4.9-8.5,6.5s-8,2.4-12.9,2.4C440.1,186.3,435.5,185.4,431.4,183.6z"/>
	<path id="XMLID_95_" class="st0" d="M512.8,169.9v15.6h-9.4c-6.7,0-11.9-1.6-15.6-4.9c-3.7-3.3-5.6-8.6-5.6-16v-23.9h-7.3v-15.3
		h7.3v-14.7h18.4v14.7h12.1v15.3h-12.1v24.1c0,1.8,0.4,3.1,1.3,3.9c0.9,0.8,2.3,1.2,4.3,1.2H512.8z"/>
	<g id="XMLID_94_" class="st1">
		<path id="XMLID_71_" class="st2" d="M214.8,211.9c0.8,1,1.2,2.2,1.2,3.5c0,1.9-0.6,3.4-1.9,4.5c-1.3,1.1-3.1,1.7-5.4,1.7h-10.2
			V199h9.9c2.2,0,4,0.5,5.2,1.6c1.3,1,1.9,2.5,1.9,4.3c0,1.3-0.3,2.4-1,3.3c-0.7,0.9-1.6,1.5-2.7,1.8
			C213,210.2,214,210.9,214.8,211.9z M203.8,208.1h3.5c0.9,0,1.6-0.2,2-0.6c0.5-0.4,0.7-1,0.7-1.7c0-0.8-0.2-1.4-0.7-1.8
			c-0.5-0.4-1.1-0.6-2-0.6h-3.5V208.1z M209.8,216.4c0.5-0.4,0.7-1,0.7-1.8c0-0.8-0.3-1.4-0.8-1.9s-1.2-0.7-2.1-0.7h-3.9v5h3.9
			C208.6,217.1,209.3,216.9,209.8,216.4z"/>
		<path id="XMLID_68_" class="st2" d="M219,207.7c0.7-1.4,1.6-2.5,2.8-3.2c1.2-0.7,2.5-1.1,3.9-1.1c1.2,0,2.3,0.3,3.2,0.8
			c0.9,0.5,1.6,1.2,2.1,2v-2.5h5.4v17.9h-5.4V219c-0.5,0.8-1.2,1.5-2.2,2c-0.9,0.5-2,0.8-3.2,0.8c-1.4,0-2.7-0.4-3.9-1.1
			c-1.2-0.8-2.1-1.8-2.8-3.2c-0.7-1.4-1-3-1-4.9S218.3,209.1,219,207.7z M230,209.3c-0.7-0.8-1.6-1.2-2.7-1.2s-2,0.4-2.7,1.2
			c-0.7,0.8-1.1,1.9-1.1,3.2s0.4,2.5,1.1,3.3c0.7,0.8,1.6,1.2,2.7,1.2s2-0.4,2.7-1.2c0.7-0.8,1.1-1.9,1.1-3.2S230.7,210.1,230,209.3
			z"/>
		<path id="XMLID_66_" class="st2" d="M251,221.5l-5.3-7.5v7.5h-5.4v-23.7h5.4v13.1l5.3-7.3h6.6l-7.3,9l7.3,8.9H251z"/>
		<path id="XMLID_63_" class="st2" d="M273.9,204.1c0.9-0.5,2-0.8,3.2-0.8c1.4,0,2.7,0.4,3.9,1.1c1.2,0.7,2.1,1.8,2.8,3.2
			c0.7,1.4,1,3,1,4.8s-0.3,3.5-1,4.9c-0.7,1.4-1.6,2.5-2.8,3.2c-1.2,0.8-2.5,1.1-3.9,1.1c-1.2,0-2.3-0.3-3.2-0.8
			c-0.9-0.5-1.6-1.2-2.2-2v2.5h-5.4v-23.7h5.4v8.4C272.2,205.3,272.9,204.6,273.9,204.1z M278.3,209.3c-0.7-0.8-1.7-1.2-2.7-1.2
			c-1.1,0-2,0.4-2.7,1.2c-0.7,0.8-1.1,1.9-1.1,3.2s0.4,2.5,1.1,3.2c0.7,0.8,1.6,1.2,2.7,1.2s2-0.4,2.7-1.2s1.1-1.9,1.1-3.3
			S279,210.1,278.3,209.3z"/>
		<path id="XMLID_61_" class="st2" d="M304.9,203.6v17.9h-5.4v-2.4c-0.5,0.8-1.3,1.4-2.2,1.9s-2,0.7-3.1,0.7c-1.3,0-2.5-0.3-3.5-0.9
			c-1-0.6-1.8-1.5-2.4-2.6c-0.6-1.2-0.8-2.5-0.8-4.1v-10.5h5.3v9.7c0,1.2,0.3,2.1,0.9,2.8c0.6,0.7,1.4,1,2.4,1c1,0,1.9-0.3,2.5-1
			c0.6-0.7,0.9-1.6,0.9-2.8v-9.7H304.9z"/>
		<path id="XMLID_59_" class="st2" d="M318.4,221c-1.2-0.5-2.1-1.3-2.8-2.2c-0.7-0.9-1.1-2-1.2-3.1h5.3c0.1,0.6,0.3,1.1,0.8,1.5
			c0.5,0.4,1.1,0.6,1.8,0.6c0.7,0,1.2-0.1,1.6-0.4c0.4-0.3,0.5-0.6,0.5-1c0-0.5-0.3-0.9-0.8-1.1c-0.5-0.2-1.4-0.5-2.5-0.8
			c-1.3-0.3-2.3-0.6-3.1-0.9c-0.8-0.3-1.6-0.9-2.2-1.6c-0.6-0.7-0.9-1.7-0.9-2.9c0-1,0.3-2,0.8-2.8c0.6-0.8,1.4-1.5,2.4-2
			s2.4-0.7,3.8-0.7c2.2,0,3.9,0.6,5.2,1.7c1.3,1.1,2,2.6,2.2,4.4h-5c-0.1-0.6-0.4-1.1-0.8-1.5c-0.5-0.4-1-0.5-1.8-0.5
			c-0.6,0-1.1,0.1-1.4,0.4c-0.3,0.2-0.5,0.6-0.5,1c0,0.5,0.3,0.9,0.8,1.2c0.5,0.3,1.4,0.5,2.5,0.8c1.3,0.3,2.4,0.7,3.2,1
			c0.8,0.3,1.5,0.9,2.1,1.6c0.6,0.7,0.9,1.7,1,3c0,1-0.3,2-0.9,2.8c-0.6,0.8-1.4,1.5-2.5,1.9c-1.1,0.5-2.3,0.7-3.7,0.7
			C321,221.8,319.6,221.5,318.4,221z"/>
		<path id="XMLID_56_" class="st2" d="M332.8,207.7c0.7-1.4,1.6-2.5,2.8-3.2s2.5-1.1,3.9-1.1c1.2,0,2.3,0.3,3.2,0.8s1.6,1.2,2.1,2
			v-2.5h5.4v17.9h-5.4V219c-0.5,0.8-1.2,1.5-2.2,2c-0.9,0.5-2,0.8-3.2,0.8c-1.4,0-2.7-0.4-3.9-1.1c-1.2-0.8-2.1-1.8-2.8-3.2
			c-0.7-1.4-1-3-1-4.9S332.2,209.1,332.8,207.7z M343.8,209.3c-0.7-0.8-1.6-1.2-2.7-1.2s-2,0.4-2.7,1.2c-0.7,0.8-1.1,1.9-1.1,3.2
			s0.4,2.5,1.1,3.3c0.7,0.8,1.6,1.2,2.7,1.2s2-0.4,2.7-1.2c0.7-0.8,1.1-1.9,1.1-3.2S344.6,210.1,343.8,209.3z"/>
		<path id="XMLID_54_" class="st2" d="M369.7,205.4c1.2,1.4,1.8,3.2,1.8,5.6v10.5h-5.3v-9.7c0-1.2-0.3-2.1-0.9-2.8
			c-0.6-0.7-1.4-1-2.4-1c-1,0-1.8,0.3-2.4,1c-0.6,0.7-0.9,1.6-0.9,2.8v9.7h-5.4v-17.9h5.4v2.4c0.5-0.8,1.3-1.4,2.2-1.9
			s2-0.7,3.1-0.7C366.9,203.4,368.5,204.1,369.7,205.4z"/>
		<path id="XMLID_51_" class="st2" d="M375.2,207.7c0.7-1.4,1.6-2.5,2.8-3.2s2.5-1.1,3.9-1.1c1.2,0,2.3,0.3,3.2,0.8s1.6,1.2,2.1,2
			v-2.5h5.4v17.9h-5.4V219c-0.5,0.8-1.2,1.5-2.2,2c-0.9,0.5-2,0.8-3.2,0.8c-1.4,0-2.7-0.4-3.9-1.1c-1.2-0.8-2.1-1.8-2.8-3.2
			c-0.7-1.4-1-3-1-4.9S374.6,209.1,375.2,207.7z M386.2,209.3c-0.7-0.8-1.6-1.2-2.7-1.2s-2,0.4-2.7,1.2c-0.7,0.8-1.1,1.9-1.1,3.2
			s0.4,2.5,1.1,3.3c0.7,0.8,1.6,1.2,2.7,1.2s2-0.4,2.7-1.2c0.7-0.8,1.1-1.9,1.1-3.2S387,210.1,386.2,209.3z"/>
		<path id="XMLID_49_" class="st2" d="M421.1,203.6l-11,26.4h-5.8l4-9.1l-7.1-17.3h6l4,11.2l4-11.2H421.1z"/>
		<path id="XMLID_46_" class="st2" d="M423,207.7c0.7-1.4,1.6-2.5,2.8-3.2s2.5-1.1,3.9-1.1c1.2,0,2.3,0.3,3.2,0.8s1.6,1.2,2.1,2
			v-2.5h5.4v17.9H435V219c-0.5,0.8-1.2,1.5-2.2,2c-0.9,0.5-2,0.8-3.2,0.8c-1.4,0-2.7-0.4-3.9-1.1c-1.2-0.8-2.1-1.8-2.8-3.2
			c-0.7-1.4-1-3-1-4.9S422.3,209.1,423,207.7z M433.9,209.3c-0.7-0.8-1.6-1.2-2.7-1.2s-2,0.4-2.7,1.2c-0.7,0.8-1.1,1.9-1.1,3.2
			s0.4,2.5,1.1,3.3c0.7,0.8,1.6,1.2,2.7,1.2s2-0.4,2.7-1.2c0.7-0.8,1.1-1.9,1.1-3.2S434.7,210.1,433.9,209.3z"/>
		<path id="XMLID_42_" class="st2" d="M455,221.5l-5.3-7.5v7.5h-5.4v-23.7h5.4v13.1l5.3-7.3h6.6l-7.3,9l7.3,8.9H455z"/>
		<path id="XMLID_39_" class="st2" d="M469.4,203.6v17.9h-5.4v-17.9H469.4z"/>
		<path id="XMLID_35_" class="st2" d="M485.4,223.7c0.8,0.6,1.2,1.5,1.2,2.7c0,1.2-0.4,2.1-1.3,2.8s-1.9,0.9-3.1,0.9h-4.8v-3h4.1
			c0.4,0,0.7-0.1,0.9-0.2c0.2-0.1,0.3-0.3,0.3-0.6s-0.1-0.5-0.3-0.6c-0.2-0.1-0.5-0.2-0.9-0.2h-2.2v-3.9c-1.9-0.3-3.4-0.9-4.6-2
			c-1.2-1.1-1.8-2.4-1.9-4h5.3c0.1,0.6,0.3,1.1,0.8,1.5c0.5,0.4,1.1,0.6,1.8,0.6c0.7,0,1.2-0.1,1.6-0.4c0.4-0.3,0.5-0.6,0.5-1
			c0-0.5-0.3-0.9-0.8-1.1c-0.5-0.2-1.4-0.5-2.5-0.8c-1.3-0.3-2.3-0.6-3.1-0.9c-0.8-0.3-1.6-0.9-2.2-1.6c-0.6-0.7-0.9-1.7-0.9-2.9
			c0-1,0.3-2,0.8-2.8c0.6-0.8,1.4-1.5,2.4-2s2.4-0.7,3.8-0.7c2.2,0,3.9,0.6,5.2,1.7c1.3,1.1,2,2.6,2.2,4.4h-5
			c-0.1-0.6-0.4-1.1-0.8-1.5c-0.5-0.4-1-0.5-1.8-0.5c-0.6,0-1.1,0.1-1.4,0.4c-0.3,0.2-0.5,0.6-0.5,1c0,0.5,0.3,0.9,0.8,1.2
			c0.5,0.3,1.4,0.5,2.5,0.8c1.3,0.3,2.4,0.7,3.2,1c0.8,0.3,1.5,0.9,2.1,1.6c0.6,0.7,0.9,1.7,1,3c0,1.4-0.5,2.5-1.4,3.5
			c-1,1-2.3,1.6-3.9,1.8v1.2C483.6,222.8,484.6,223.1,485.4,223.7z"/>
		<path id="XMLID_33_" class="st2" d="M497,203.6v17.9h-5.4v-17.9H497z"/>
		<path id="XMLID_31_" class="st2" d="M509,204.3c0.9-0.6,2-0.9,3.1-0.9v5.8h-1.5c-1.3,0-2.3,0.3-3,0.9c-0.7,0.6-1,1.6-1,3.1v8.3
			h-5.4v-17.9h5.4v3C507.3,205.6,508,204.8,509,204.3z"/>
	</g>
	<path id="XMLID_93_" class="st0" d="M159.5,79.6h-6.9c0-3.3,0.2-6.6,0-9.8c-0.6-8.3-6.8-15.5-14.7-17.3c-8.5-1.9-17.4,1.7-21.3,9.2
		c-1.5,2.9-2.1,6.5-2.7,9.8c-0.4,2.6-0.1,5.3-0.1,8.1H107c-1.1-11.4,0.5-21.7,10.4-29.2c8.5-6.4,20-7.2,29.1-1.8
		C158.2,55.6,161,66.6,159.5,79.6z"/>
	<g id="XMLID_89_">
		<path id="XMLID_92_" class="st0" d="M191.4,170.6c0-0.1,0-0.2,0-0.3c-0.8-4.3-1.5-8.5-2.3-12.8c-0.9-4.8-1.8-9.7-2.6-14.5
			l-6.4-35.6l-21.8,47.4l1.7,9.4c0,0,2.1,11.4,2.5,13l1.6,8.3l29-5.2L191.4,170.6z"/>
		<path id="XMLID_91_" class="st0" d="M80,143c-0.9,4.8-1.8,9.7-2.6,14.5c-0.8,4.2-1.5,8.5-2.3,12.8c0,0.1,0,0.2,0,0.3l-1.7,9.7
			l29,5.2l1.6-8.3c0.4-1.5,2.5-13,2.5-13l1.7-9.4l-21.7-47.4L80,143z"/>
		<path id="XMLID_90_" class="st0" d="M153.4,152.2c6.6-14.6,17.4-39.2,21.6-48.7l0,0l3.5-7.7l-10-1.6c-2.1-0.4-4.2-0.7-6.3-1
			l-9.2-1.5c-0.2,0-0.3-0.1-0.5-0.1c-0.9-0.2-1.7-0.3-2.3-0.4l-2.1-0.3c0,0-3.1,5.8-4.7,8.7c-3.2,5.6-6.5,11.3-9.9,17.2
			c-2.8-4.8-5.4-9.4-8-14c-0.4-0.7-0.8-1.4-1.2-2.1c-1.2-2.2-5.3-9.9-5.3-9.9l-2.1,0.3c-0.7,0-1.4,0.2-2.4,0.4
			c-0.3,0.1-0.5,0.1-0.8,0.1l-8.5,1.4c-2.3,0.3-4.6,0.7-7,1.1l-9.6,1.5l3.5,7.7c4.2,9.5,15,34.1,21.6,48.7l0,0l5.6,13.3h12.6
			c0.5,0,1.1,0,1.6,0l0,0l0,0l0,0l0,0c0.5,0,1.1,0,1.6,0h12.6L153.4,152.2z"/>
	</g>
</g>
</svg>
